{
    "asset" : {
        "generator" : "Khronos glTF Blender I/O v1.7.33",
        "version" : "2.0"
    },
    "scene" : 0,
    "scenes" : [
        {
            "name" : "Scene",
            "nodes" : [
                11
            ]
        }
    ],
    "nodes" : [
        {
            "mesh" : 0,
            "name" : "Object_4"
        },
        {
            "mesh" : 1,
            "name" : "Object_5"
        },
        {
            "mesh" : 2,
            "name" : "Object_6"
        },
        {
            "children" : [
                0,
                1,
                2
            ],
            "name" : "Frame_0"
        },
        {
            "mesh" : 3,
            "name" : "Object_10"
        },
        {
            "mesh" : 4,
            "name" : "Object_11"
        },
        {
            "children" : [
                4,
                5
            ],
            "name" : "Thrusters_2"
        },
        {
            "mesh" : 5,
            "name" : "Object_8"
        },
        {
            "children" : [
                7
            ],
            "name" : "Wings.Front_1"
        },
        {
            "children" : [
                3,
                6,
                8
            ],
            "name" : "GLTF_SceneRootNode",
            "rotation" : [
                0.7071068286895752,
                0,
                0,
                0.7071068286895752
            ]
        },
        {
            "children" : [
                9
            ],
            "name" : "root"
        },
        {
            "children" : [
                10
            ],
            "name" : "Sketchfab_model",
            "rotation" : [
                -0.7071068286895752,
                0,
                0,
                0.7071068286895752
            ]
        }
    ],
    "materials" : [
        {
            "doubleSided" : true,
            "name" : "Material.001",
            "pbrMetallicRoughness" : {
                "baseColorFactor" : [
                    0.16942299902439117,
                    0.24991999566555023,
                    0.3440139889717102,
                    1
                ],
                "metallicFactor" : 0.38425999879837036,
                "roughnessFactor" : 0.4000000059604645
            }
        },
        {
            "doubleSided" : true,
            "name" : "Material.002",
            "pbrMetallicRoughness" : {
                "baseColorFactor" : [
                    0.044951099902391434,
                    0.044951099902391434,
                    0.044951099902391434,
                    1
                ],
                "roughnessFactor" : 0.5
            }
        },
        {
            "doubleSided" : true,
            "name" : "Material.004",
            "pbrMetallicRoughness" : {
                "baseColorFactor" : [
                    0.06870110332965851,
                    0.06870110332965851,
                    0.06870110332965851,
                    1
                ],
                "metallicFactor" : 0,
                "roughnessFactor" : 0.5
            }
        },
        {
            "doubleSided" : true,
            "emissiveFactor" : [
                1,
                0.0445174016058445,
                0
            ],
            "name" : "Material.003",
            "pbrMetallicRoughness" : {
                "baseColorFactor" : [
                    1,
                    0.011052800342440605,
                    0,
                    1
                ],
                "metallicFactor" : 0,
                "roughnessFactor" : 0.5
            }
        }
    ],
    "meshes" : [
        {
            "name" : "Object_0",
            "primitives" : [
                {
                    "attributes" : {
                        "POSITION" : 0,
                        "NORMAL" : 1,
                        "TEXCOORD_0" : 2
                    },
                    "indices" : 3,
                    "material" : 0
                }
            ]
        },
        {
            "name" : "Object_1",
            "primitives" : [
                {
                    "attributes" : {
                        "POSITION" : 4,
                        "NORMAL" : 5,
                        "TEXCOORD_0" : 6
                    },
                    "indices" : 7,
                    "material" : 1
                }
            ]
        },
        {
            "name" : "Object_2",
            "primitives" : [
                {
                    "attributes" : {
                        "POSITION" : 8,
                        "NORMAL" : 9,
                        "TEXCOORD_0" : 10
                    },
                    "indices" : 11,
                    "material" : 2
                }
            ]
        },
        {
            "name" : "Object_4",
            "primitives" : [
                {
                    "attributes" : {
                        "POSITION" : 12,
                        "NORMAL" : 13,
                        "TEXCOORD_0" : 14
                    },
                    "indices" : 15,
                    "material" : 1
                }
            ]
        },
        {
            "name" : "Object_5",
            "primitives" : [
                {
                    "attributes" : {
                        "POSITION" : 16,
                        "NORMAL" : 17,
                        "TEXCOORD_0" : 18
                    },
                    "indices" : 19,
                    "material" : 3
                }
            ]
        },
        {
            "name" : "Object_3",
            "primitives" : [
                {
                    "attributes" : {
                        "POSITION" : 20,
                        "NORMAL" : 21,
                        "TEXCOORD_0" : 22
                    },
                    "indices" : 23,
                    "material" : 0
                }
            ]
        }
    ],
    "accessors" : [
        {
            "bufferView" : 0,
            "componentType" : 5126,
            "count" : 868,
            "max" : [
                1.926466703414917,
                1.1707271337509155,
                4.222752094268799
            ],
            "min" : [
                -1.926466703414917,
                -0.5020633935928345,
                -2.991323471069336
            ],
            "type" : "VEC3"
        },
        {
            "bufferView" : 1,
            "componentType" : 5126,
            "count" : 868,
            "type" : "VEC3"
        },
        {
            "bufferView" : 2,
            "componentType" : 5126,
            "count" : 868,
            "type" : "VEC2"
        },
        {
            "bufferView" : 3,
            "componentType" : 5123,
            "count" : 1152,
            "type" : "SCALAR"
        },
        {
            "bufferView" : 4,
            "componentType" : 5126,
            "count" : 88,
            "max" : [
                1.0484492778778076,
                0.2121514081954956,
                2.0028820037841797
            ],
            "min" : [
                -1.0484492778778076,
                -0.05202663689851761,
                1.2813774347305298
            ],
            "type" : "VEC3"
        },
        {
            "bufferView" : 5,
            "componentType" : 5126,
            "count" : 88,
            "type" : "VEC3"
        },
        {
            "bufferView" : 6,
            "componentType" : 5126,
            "count" : 88,
            "type" : "VEC2"
        },
        {
            "bufferView" : 7,
            "componentType" : 5123,
            "count" : 96,
            "type" : "SCALAR"
        },
        {
            "bufferView" : 8,
            "componentType" : 5126,
            "count" : 48,
            "max" : [
                0.35535675287246704,
                0.8631296753883362,
                3.1977126598358154
            ],
            "min" : [
                -0.35535675287246704,
                0.4199908375740051,
                1.4558855295181274
            ],
            "type" : "VEC3"
        },
        {
            "bufferView" : 9,
            "componentType" : 5126,
            "count" : 48,
            "type" : "VEC3"
        },
        {
            "bufferView" : 10,
            "componentType" : 5126,
            "count" : 48,
            "type" : "VEC2"
        },
        {
            "bufferView" : 11,
            "componentType" : 5123,
            "count" : 48,
            "type" : "SCALAR"
        },
        {
            "bufferView" : 12,
            "componentType" : 5126,
            "count" : 408,
            "max" : [
                0.7166337966918945,
                0.17435799539089203,
                -2.8480100631713867
            ],
            "min" : [
                -0.7166337966918945,
                -0.13008525967597961,
                -3.201502561569214
            ],
            "type" : "VEC3"
        },
        {
            "bufferView" : 13,
            "componentType" : 5126,
            "count" : 408,
            "type" : "VEC3"
        },
        {
            "bufferView" : 14,
            "componentType" : 5126,
            "count" : 408,
            "type" : "VEC2"
        },
        {
            "bufferView" : 15,
            "componentType" : 5123,
            "count" : 504,
            "type" : "SCALAR"
        },
        {
            "bufferView" : 16,
            "componentType" : 5126,
            "count" : 72,
            "max" : [
                0.5764848589897156,
                0.08655034005641937,
                -2.9039435386657715
            ],
            "min" : [
                -0.5764848589897156,
                -0.047245681285858154,
                -3.1031641960144043
            ],
            "type" : "VEC3"
        },
        {
            "bufferView" : 17,
            "componentType" : 5126,
            "count" : 72,
            "type" : "VEC3"
        },
        {
            "bufferView" : 18,
            "componentType" : 5126,
            "count" : 72,
            "type" : "VEC2"
        },
        {
            "bufferView" : 19,
            "componentType" : 5123,
            "count" : 72,
            "type" : "SCALAR"
        },
        {
            "bufferView" : 20,
            "componentType" : 5126,
            "count" : 116,
            "max" : [
                3.778167724609375,
                0.06387324631214142,
                0.8990833759307861
            ],
            "min" : [
                -3.778167724609375,
                -0.16265979409217834,
                -1.6516135931015015
            ],
            "type" : "VEC3"
        },
        {
            "bufferView" : 21,
            "componentType" : 5126,
            "count" : 116,
            "type" : "VEC3"
        },
        {
            "bufferView" : 22,
            "componentType" : 5126,
            "count" : 116,
            "type" : "VEC2"
        },
        {
            "bufferView" : 23,
            "componentType" : 5123,
            "count" : 144,
            "type" : "SCALAR"
        }
    ],
    "bufferViews" : [
        {
            "buffer" : 0,
            "byteLength" : 10416,
            "byteOffset" : 0
        },
        {
            "buffer" : 0,
            "byteLength" : 10416,
            "byteOffset" : 10416
        },
        {
            "buffer" : 0,
            "byteLength" : 6944,
            "byteOffset" : 20832
        },
        {
            "buffer" : 0,
            "byteLength" : 2304,
            "byteOffset" : 27776
        },
        {
            "buffer" : 0,
            "byteLength" : 1056,
            "byteOffset" : 30080
        },
        {
            "buffer" : 0,
            "byteLength" : 1056,
            "byteOffset" : 31136
        },
        {
            "buffer" : 0,
            "byteLength" : 704,
            "byteOffset" : 32192
        },
        {
            "buffer" : 0,
            "byteLength" : 192,
            "byteOffset" : 32896
        },
        {
            "buffer" : 0,
            "byteLength" : 576,
            "byteOffset" : 33088
        },
        {
            "buffer" : 0,
            "byteLength" : 576,
            "byteOffset" : 33664
        },
        {
            "buffer" : 0,
            "byteLength" : 384,
            "byteOffset" : 34240
        },
        {
            "buffer" : 0,
            "byteLength" : 96,
            "byteOffset" : 34624
        },
        {
            "buffer" : 0,
            "byteLength" : 4896,
            "byteOffset" : 34720
        },
        {
            "buffer" : 0,
            "byteLength" : 4896,
            "byteOffset" : 39616
        },
        {
            "buffer" : 0,
            "byteLength" : 3264,
            "byteOffset" : 44512
        },
        {
            "buffer" : 0,
            "byteLength" : 1008,
            "byteOffset" : 47776
        },
        {
            "buffer" : 0,
            "byteLength" : 864,
            "byteOffset" : 48784
        },
        {
            "buffer" : 0,
            "byteLength" : 864,
            "byteOffset" : 49648
        },
        {
            "buffer" : 0,
            "byteLength" : 576,
            "byteOffset" : 50512
        },
        {
            "buffer" : 0,
            "byteLength" : 144,
            "byteOffset" : 51088
        },
        {
            "buffer" : 0,
            "byteLength" : 1392,
            "byteOffset" : 51232
        },
        {
            "buffer" : 0,
            "byteLength" : 1392,
            "byteOffset" : 52624
        },
        {
            "buffer" : 0,
            "byteLength" : 928,
            "byteOffset" : 54016
        },
        {
            "buffer" : 0,
            "byteLength" : 288,
            "byteOffset" : 54944
        }
    ],
    "buffers" : [
        {
            "byteLength" : 55232,
            "uri" : "data:application/octet-stream;base64,"
        }
    ]
}
